<svg xmlns="http://www.w3.org/2000/svg" data-v-1084b650="" viewBox="40 130 250 40"><!----> <!----> <rect data-v-1084b650="" fill="#ffffff" x="0" y="0" width="300px" height="300px" class="logo-background-square"/> <!----> <g data-v-1084b650="" id="5db105ef-cd6a-8746-b20c-56949e810938" fill="#2e3034" transform="matrix(3.0999999999999996,0,0,3.0999999999999996,112.15474156737328,120.53449587821962)"><path d="M2.17 14.20L2.17 14.20Q1.37 14.20 0.96 13.75L0.96 13.75L0.96 13.75Q0.55 13.30 0.55 12.67L0.55 12.67L0.55 12.67Q0.55 12.00 1.03 11.56L1.03 11.56L1.03 11.56Q1.51 11.13 2.25 10.93L2.25 10.93L2.25 10.93Q2.97 10.71 3.78 10.71L3.78 10.71L3.98 10.72L3.98 10.46L3.98 10.46Q3.98 9.88 3.91 9.49L3.91 9.49L3.91 9.49Q3.84 9.10 3.56 8.83L3.56 8.83L3.56 8.83Q3.28 8.55 2.70 8.55L2.70 8.55L2.70 8.55Q2.28 8.55 2.16 8.67L2.16 8.67L2.16 8.67Q2.03 8.78 2.03 8.90L2.03 8.90L2.03 8.90Q2.03 8.97 2.10 9.13L2.10 9.13L2.10 9.13Q2.17 9.28 2.17 9.35L2.17 9.35L2.17 9.35Q2.17 9.66 2.00 9.81L2.00 9.81L2.00 9.81Q1.85 10.00 1.57 10.00L1.57 10.00L1.57 10.00Q1.32 10.00 1.12 9.80L1.12 9.80L1.12 9.80Q1.02 9.69 0.98 9.59L0.98 9.59L0.98 9.59Q0.94 9.49 0.94 9.37L0.94 9.37L0.94 9.37Q0.94 9.10 1.12 8.88L1.12 8.88L1.12 8.88Q1.41 8.54 1.90 8.43L1.90 8.43L1.90 8.43Q2.38 8.32 2.81 8.32L2.81 8.32L2.81 8.32Q3.49 8.32 3.93 8.47L3.93 8.47L3.93 8.47Q4.38 8.62 4.65 8.96L4.65 8.96L4.65 8.96Q4.87 9.25 4.92 9.59L4.92 9.59L4.92 9.59Q4.97 9.93 4.97 10.72L4.97 10.72L4.97 12.89L4.97 12.89Q4.97 13.66 5.38 13.66L5.38 13.66L5.38 13.66Q5.60 13.66 5.82 13.44L5.82 13.44L5.82 13.44Q5.85 13.43 5.87 13.41L5.87 13.41L5.87 13.41Q5.88 13.38 5.91 13.38L5.91 13.38L5.91 13.38Q5.99 13.38 5.99 13.48L5.99 13.48L5.99 13.48Q5.99 13.68 5.68 13.91L5.68 13.91L5.68 13.91Q5.36 14.14 5.07 14.14L5.07 14.14L5.07 14.14Q4.70 14.14 4.43 13.87L4.43 13.87L4.43 13.87Q4.16 13.59 4.02 13.19L4.02 13.19L4.02 13.19Q3.98 13.19 3.96 13.17L3.96 13.17L3.96 13.17Q3.93 13.16 3.92 13.19L3.92 13.19L3.92 13.19Q3.32 14.20 2.17 14.20L2.17 14.20ZM2.58 13.71L2.58 13.71Q2.95 13.71 3.28 13.51L3.28 13.51L3.28 13.51Q3.60 13.31 3.79 13.03L3.79 13.03L3.79 13.03Q3.98 12.75 3.98 12.52L3.98 12.52L3.98 10.99L3.98 10.99Q3.57 10.99 3.11 11.05L3.11 11.05L3.11 11.05Q2.65 11.12 2.34 11.27L2.34 11.27L2.34 11.27Q1.86 11.51 1.72 11.91L1.72 11.91L1.72 11.91Q1.57 12.31 1.57 12.63L1.57 12.63L1.57 12.63Q1.57 12.99 1.79 13.35L1.79 13.35L1.79 13.35Q2.02 13.71 2.58 13.71L2.58 13.71ZM6.94 14.01L6.94 14.01Q6.89 14.01 6.87 13.97L6.87 13.97L6.87 13.97Q6.85 13.93 6.85 13.85L6.85 13.85L6.85 13.85Q6.85 13.78 6.87 13.76L6.87 13.76L6.87 13.76Q6.90 13.73 6.99 13.73L6.99 13.73L7.38 13.73L7.38 13.73Q7.50 13.73 7.57 13.64L7.57 13.64L7.57 13.64Q7.63 13.54 7.63 13.41L7.63 13.41L7.63 9.00L7.63 9.00Q7.63 8.69 7.38 8.69L7.38 8.69L6.85 8.69L6.85 8.69Q6.68 8.69 6.68 8.54L6.68 8.54L6.68 8.54Q6.68 8.36 6.86 8.36L6.86 8.36L8.44 8.36L8.44 8.36Q8.65 8.36 8.65 8.58L8.65 8.58L8.65 9.42L8.65 9.42Q8.68 9.49 8.75 9.39L8.75 9.39L8.75 9.39Q8.76 9.37 8.94 9.07L8.94 9.07L8.94 9.07Q9.11 8.78 9.54 8.51L9.54 8.51L9.54 8.51Q9.97 8.23 10.50 8.23L10.50 8.23L10.50 8.23Q11.27 8.23 11.63 8.75L11.63 8.75L11.63 8.75Q12.00 9.27 12.00 9.86L12.00 9.86L12.00 13.48L12.00 13.48Q12.00 13.71 12.18 13.71L12.18 13.71L12.64 13.71L12.64 13.71Q12.73 13.71 12.77 13.73L12.77 13.73L12.77 13.73Q12.81 13.76 12.81 13.85L12.81 13.85L12.81 13.85Q12.81 13.93 12.77 13.97L12.77 13.97L12.77 13.97Q12.73 14.00 12.64 14.00L12.64 14.00L10.46 14.00L10.46 14.00Q10.36 14.00 10.36 13.85L10.36 13.85L10.36 13.85Q10.36 13.78 10.39 13.74L10.39 13.74L10.39 13.74Q10.42 13.71 10.50 13.71L10.50 13.71L10.74 13.71L10.74 13.71Q10.88 13.71 10.93 13.66L10.93 13.66L10.93 13.66Q10.98 13.62 10.98 13.48L10.98 13.48L10.98 9.90L10.98 9.90Q10.98 9.44 10.71 9.14L10.71 9.14L10.71 9.14Q10.44 8.83 10.05 8.83L10.05 8.83L10.05 8.83Q9.60 8.83 9.19 9.18L9.19 9.18L9.19 9.18Q8.78 9.52 8.65 10.35L8.65 10.35L8.65 13.51L8.65 13.51Q8.65 13.64 8.69 13.67L8.69 13.67L8.69 13.67Q8.74 13.71 8.83 13.71L8.83 13.71L9.14 13.71L9.14 13.71Q9.21 13.71 9.23 13.73L9.23 13.73L9.23 13.73Q9.25 13.76 9.25 13.85L9.25 13.85L9.25 13.85Q9.25 13.94 9.23 13.98L9.23 13.98L9.23 13.98Q9.21 14.01 9.14 14.01L9.14 14.01L6.94 14.01ZM16.24 14.20L16.24 14.20Q15.74 14.20 15.17 13.92L15.17 13.92L15.17 13.92Q14.60 13.65 14.19 13.01L14.19 13.01L14.19 13.01Q13.78 12.38 13.78 11.35L13.78 11.35L13.78 11.35Q13.78 10.40 14.15 9.69L14.15 9.69L14.15 9.69Q14.52 8.97 15.07 8.60L15.07 8.60L15.07 8.60Q15.62 8.22 16.13 8.22L16.13 8.22L16.13 8.22Q16.65 8.22 17.06 8.40L17.06 8.40L17.06 8.40Q17.47 8.58 17.74 8.85L17.74 8.85L17.74 8.85Q17.78 8.89 17.82 8.89L17.82 8.89L17.82 8.89Q17.93 8.89 17.93 8.76L17.93 8.76L17.93 5.21L17.93 5.21Q17.93 5.07 17.92 5.02L17.92 5.02L17.92 5.02Q17.91 4.97 17.82 4.84L17.82 4.84L17.82 4.84Q17.72 4.70 17.23 4.70L17.23 4.70L17.02 4.70L17.02 4.70Q16.94 4.70 16.89 4.66L16.89 4.66L16.89 4.66Q16.84 4.62 16.84 4.56L16.84 4.56L16.84 4.56Q16.84 4.41 17.01 4.41L17.01 4.41L18.65 4.41L18.65 4.41Q18.82 4.41 18.89 4.46L18.89 4.46L18.89 4.46Q18.96 4.51 18.96 4.63L18.96 4.63L18.96 13.24L18.96 13.24Q18.96 13.61 19.08 13.72L19.08 13.72L19.08 13.72Q19.21 13.83 19.52 13.83L19.52 13.83L19.52 13.83Q19.64 13.83 19.67 13.85L19.67 13.85L19.67 13.85Q19.70 13.86 19.70 13.93L19.70 13.93L19.70 13.93Q19.70 14.00 19.67 14.04L19.67 14.04L19.67 14.04Q19.64 14.07 19.54 14.07L19.54 14.07L18.14 14.11L18.14 14.11Q18.05 14.11 17.99 14.08L17.99 14.08L17.99 14.08Q17.93 14.06 17.93 13.96L17.93 13.96L17.93 13.37L17.93 13.37Q17.93 13.31 17.88 13.29L17.88 13.29L17.88 13.29Q17.82 13.27 17.79 13.33L17.79 13.33L17.79 13.33Q17.56 13.69 17.13 13.94L17.13 13.94L17.13 13.94Q16.70 14.20 16.24 14.20L16.24 14.20ZM16.27 13.83L16.27 13.83Q17.25 13.83 17.58 13.20L17.58 13.20L17.58 13.20Q17.91 12.56 17.93 11.97L17.93 11.97L17.93 9.76L17.92 9.73L17.92 9.73Q17.79 9.25 17.44 8.88L17.44 8.88L17.44 8.88Q17.09 8.51 16.46 8.51L16.46 8.51L16.46 8.51Q15.58 8.51 15.26 9.36L15.26 9.36L15.26 9.36Q14.94 10.21 14.94 11.30L14.94 11.30L14.94 11.30Q14.94 12.45 15.19 13.14L15.19 13.14L15.19 13.14Q15.44 13.83 16.27 13.83L16.27 13.83ZM21.27 14.01L21.27 14.01Q21.18 14.01 21.13 13.96L21.13 13.96L21.13 13.96Q21.07 13.90 21.07 13.82L21.07 13.82L21.07 13.82Q21.07 13.72 21.13 13.67L21.13 13.67L21.13 13.67Q21.18 13.62 21.27 13.62L21.27 13.62L22.71 13.62L22.71 5.88L21.38 6.87L21.38 6.87Q21.32 6.93 21.24 6.93L21.24 6.93L21.24 6.93Q21.17 6.93 21.10 6.85L21.10 6.85L21.10 6.85Q21.06 6.78 21.06 6.73L21.06 6.73L21.06 6.73Q21.06 6.65 21.14 6.57L21.14 6.57L23.03 4.94L23.03 4.94Q23.13 4.84 23.30 4.84L23.30 4.84L23.58 4.84L23.58 4.84Q23.67 4.84 23.73 4.90L23.73 4.90L23.73 4.90Q23.79 4.96 23.79 5.05L23.79 5.05L23.79 13.62L25.27 13.62L25.27 13.62Q25.35 13.62 25.42 13.68L25.42 13.68L25.42 13.68Q25.49 13.73 25.49 13.82L25.49 13.82L25.49 13.82Q25.49 13.90 25.42 13.96L25.42 13.96L25.42 13.96Q25.35 14.01 25.27 14.01L25.27 14.01L21.27 14.01ZM29.85 4.16L26.49 14.98L26.01 14.87L29.43 4.03L29.85 4.16ZM31.05 14.01L31.05 14.01Q30.94 14.01 30.86 13.95L30.86 13.95L30.86 13.95Q30.79 13.89 30.79 13.80L30.79 13.80L30.79 13.80Q30.79 13.75 30.83 13.69L30.83 13.69L33.92 8.83L33.92 8.83Q33.99 8.74 33.99 8.69L33.99 8.69L33.99 8.69Q33.99 8.60 33.85 8.60L33.85 8.60L33.50 8.60L33.50 8.60Q32.63 8.60 32.34 8.68L32.34 8.68L32.34 8.68Q31.95 8.76 31.76 8.99L31.76 8.99L31.76 8.99Q31.57 9.21 31.42 9.65L31.42 9.65L31.42 9.65Q31.32 9.86 31.21 9.86L31.21 9.86L31.21 9.86Q31.14 9.86 31.12 9.81L31.12 9.81L31.12 9.81Q31.11 9.77 31.11 9.65L31.11 9.65L31.11 8.58L31.11 8.58Q31.11 8.46 31.17 8.41L31.17 8.41L31.17 8.41Q31.23 8.36 31.37 8.36L31.37 8.36L35.10 8.36L35.10 8.36Q35.18 8.36 35.21 8.41L35.21 8.41L35.21 8.41Q35.24 8.47 35.18 8.54L35.18 8.54L31.98 13.65L31.96 13.71L31.96 13.71Q31.96 13.73 32.09 13.73L32.09 13.73L33.64 13.73L33.64 13.73Q34.23 13.73 34.51 13.38L34.51 13.38L34.51 13.38Q34.79 13.03 34.88 12.77L34.88 12.77L34.88 12.77Q34.97 12.50 35 12.45L35 12.45L35 12.45Q35.03 12.38 35.06 12.36L35.06 12.36L35.06 12.36Q35.08 12.35 35.14 12.35L35.14 12.35L35.14 12.35Q35.22 12.35 35.27 12.38L35.27 12.38L35.27 12.38Q35.31 12.42 35.31 12.52L35.31 12.52L35.25 13.87L35.25 13.87Q35.25 14.01 35.10 14.01L35.10 14.01L31.05 14.01ZM39.10 14.14L39.10 14.14Q38.40 14.14 37.75 13.82L37.75 13.82L37.75 13.82Q37.10 13.50 36.68 12.85L36.68 12.85L36.68 12.85Q36.26 12.19 36.26 11.27L36.26 11.27L36.26 11.27Q36.26 10.36 36.67 9.67L36.67 9.67L36.67 9.67Q37.07 8.99 37.70 8.62L37.70 8.62L37.70 8.62Q38.32 8.25 38.96 8.25L38.96 8.25L38.96 8.25Q39.77 8.25 40.31 8.65L40.31 8.65L40.31 8.65Q40.84 9.04 41.09 9.62L41.09 9.62L41.09 9.62Q41.34 10.19 41.34 10.68L41.34 10.68L41.34 10.68Q41.34 11.02 41.08 11.02L41.08 11.02L38.15 11.02L38.15 11.02Q37.76 11.02 37.59 11.07L37.59 11.07L37.59 11.07Q37.42 11.12 37.42 11.31L37.42 11.31L37.42 11.31Q37.42 12.42 37.83 13.13L37.83 13.13L37.83 13.13Q38.23 13.83 39.33 13.83L39.33 13.83L39.37 13.83L39.37 13.83Q39.83 13.82 40.26 13.57L40.26 13.57L40.26 13.57Q40.68 13.33 41.13 12.67L41.13 12.67L41.13 12.67Q41.17 12.61 41.26 12.61L41.26 12.61L41.26 12.61Q41.33 12.61 41.37 12.66L41.37 12.66L41.37 12.66Q41.41 12.70 41.37 12.78L41.37 12.78L41.37 12.78Q41.31 12.94 41.05 13.26L41.05 13.26L41.05 13.26Q40.78 13.58 40.28 13.86L40.28 13.86L40.28 13.86Q39.79 14.14 39.10 14.14L39.10 14.14ZM37.44 10.67L39.94 10.67L39.94 10.67Q40.15 10.67 40.19 10.63L40.19 10.63L40.19 10.63Q40.22 10.60 40.22 10.42L40.22 10.42L40.22 10.42Q40.22 9.81 40.01 9.16L40.01 9.16L40.01 9.16Q39.79 8.50 39.05 8.50L39.05 8.50L39.05 8.50Q38.46 8.50 38.00 9.04L38.00 9.04L38.00 9.04Q37.53 9.59 37.44 10.67L37.44 10.67ZM42.66 14.01L42.66 14.01Q42.60 14.01 42.58 13.97L42.58 13.97L42.58 13.97Q42.56 13.93 42.56 13.85L42.56 13.85L42.56 13.85Q42.56 13.78 42.59 13.76L42.59 13.76L42.59 13.76Q42.62 13.73 42.70 13.73L42.70 13.73L43.19 13.73L43.19 13.73Q43.32 13.73 43.39 13.64L43.39 13.64L43.39 13.64Q43.46 13.54 43.46 13.41L43.46 13.41L43.46 9.00L43.46 9.00Q43.46 8.85 43.38 8.77L43.38 8.77L43.38 8.77Q43.30 8.69 43.19 8.69L43.19 8.69L42.56 8.69L42.56 8.69Q42.39 8.69 42.39 8.54L42.39 8.54L42.39 8.54Q42.39 8.36 42.57 8.36L42.57 8.36L44.27 8.36L44.27 8.36Q44.49 8.36 44.49 8.58L44.49 8.58L44.49 9.72L44.49 9.72Q44.49 9.63 44.66 9.26L44.66 9.26L44.66 9.26Q44.83 8.89 45.19 8.56L45.19 8.56L45.19 8.56Q45.56 8.23 46.14 8.23L46.14 8.23L46.14 8.23Q46.66 8.23 46.90 8.48L46.90 8.48L46.90 8.48Q47.14 8.74 47.14 9.09L47.14 9.09L47.14 9.09Q47.14 9.38 46.97 9.60L46.97 9.60L46.97 9.60Q46.80 9.81 46.54 9.81L46.54 9.81L46.54 9.81Q46.28 9.81 46.12 9.65L46.12 9.65L46.12 9.65Q45.96 9.49 45.96 9.24L45.96 9.24L45.96 9.24Q45.96 8.99 46.10 8.83L46.10 8.83L46.10 8.83Q46.17 8.76 46.17 8.71L46.17 8.71L46.17 8.71Q46.17 8.64 46.09 8.59L46.09 8.59L46.09 8.59Q46.00 8.54 45.86 8.54L45.86 8.54L45.86 8.54Q45.56 8.54 45.24 8.81L45.24 8.81L45.24 8.81Q44.93 9.09 44.71 9.63L44.71 9.63L44.71 9.63Q44.49 10.16 44.49 10.91L44.49 10.91L44.49 13.51L44.49 13.51Q44.49 13.64 44.52 13.67L44.52 13.67L44.52 13.67Q44.55 13.71 44.65 13.71L44.65 13.71L45.36 13.71L45.36 13.71Q45.43 13.71 45.49 13.74L45.49 13.74L45.49 13.74Q45.54 13.78 45.54 13.85L45.54 13.85L45.54 13.85Q45.54 14.01 45.36 14.01L45.36 14.01L42.66 14.01ZM50.58 14.14L50.58 14.14Q49.84 14.14 49.20 13.74L49.20 13.74L49.20 13.74Q48.57 13.34 48.20 12.67L48.20 12.67L48.20 12.67Q47.82 12.00 47.82 11.21L47.82 11.21L47.82 11.21Q47.82 10.42 48.20 9.72L48.20 9.72L48.20 9.72Q48.57 9.03 49.20 8.62L49.20 8.62L49.20 8.62Q49.84 8.22 50.58 8.22L50.58 8.22L50.58 8.22Q51.32 8.22 51.96 8.62L51.96 8.62L51.96 8.62Q52.60 9.03 52.97 9.72L52.97 9.72L52.97 9.72Q53.34 10.42 53.34 11.21L53.34 11.21L53.34 11.21Q53.34 12.00 52.97 12.67L52.97 12.67L52.97 12.67Q52.60 13.34 51.96 13.74L51.96 13.74L51.96 13.74Q51.32 14.14 50.58 14.14L50.58 14.14ZM50.58 13.89L50.58 13.89Q51.28 13.89 51.69 13.15L51.69 13.15L51.69 13.15Q52.09 12.42 52.09 11.21L52.09 11.21L52.09 11.21Q52.09 10.00 51.69 9.24L51.69 9.24L51.69 9.24Q51.28 8.48 50.58 8.48L50.58 8.48L50.58 8.48Q49.90 8.48 49.49 9.24L49.49 9.24L49.49 9.24Q49.08 10.00 49.08 11.21L49.08 11.21L49.08 11.21Q49.08 12.42 49.49 13.15L49.49 13.15L49.49 13.15Q49.90 13.89 50.58 13.89L50.58 13.89Z"/></g> <!----> <g data-v-1084b650="" id="007c6554-e12d-f682-ac78-8af46024e61c" stroke="none" fill="#488eff" transform="matrix(0.2416013457597409,0,0,0.2416013457597409,36.44427327600646,113.7597926062229)"><svg xmlns:rdf="http://www.w3.org/1999/02/22-rdf-syntax-ns#" xmlns="http://www.w3.org/2000/svg" xmlns:cc="http://creativecommons.org/ns#" xmlns:dc="http://purl.org/dc/elements/1.1/" version="1.1" viewBox="0 -25 100 120" x="0px" y="0px" width="355px" height="240px"><path style="baseline-shift:baseline;block-progression:tb;color:#000000;direction:ltr;text-indent:0;enable-background:accumulate;text-transform:none;" d="M29.125,14.875c-2.477,0-4.482,0.141-5.969,0.437-1.486,0.298-2.741,0.808-3.781,1.5-1.362,0.868-2.318,2.076-2.875,3.626-0.557,1.548-0.844,4.208-0.844,8v9.062c0,3.79-0.669,6.445-2.031,7.969-1.362,1.523-3.712,2.281-7.0312,2.281-0.1736,0-0.441-0.006-0.8126-0.031-0.3714-0.025-0.6768-0.031-0.875-0.031v4.718c0.1982,0,0.5036-0.006,0.875-0.031,0.3716-0.025,0.639-0.061,0.8126-0.063,3.3192,0.002,5.6692,0.771,7.0312,2.282s2.031,4.141,2.031,7.906v9.062c0,3.692,0.287,6.353,0.844,7.938s1.513,2.796,2.875,3.688c1.04,0.692,2.315,1.202,3.813,1.5,1.498,0.296,3.484,0.437,5.937,0.437h1.281v-4.625h-1.406c-3.122,0-5.266-0.598-6.344-1.75-1.077-1.152-1.625-3.559-1.625-7.25v-9c0-4.112-0.515-7.028-1.593-8.75s-3-2.944-5.75-3.688c2.75-0.766,4.672-2.028,5.75-3.75,1.078-1.72,1.593-4.636,1.593-8.75v-8.968c0-3.716,0.56-6.18,1.625-7.344s3.097-1.75,6.094-1.75c0.173,0,0.472,0.038,0.844,0.062,0.371,0.026,0.614,0.032,0.812,0.032v-4.719h-1.281zm40.375,0v4.625h1.5c3.096,0,5.16,0.605,6.25,1.781,1.09,1.177,1.625,3.622,1.625,7.313v8.968c0,4.114,0.547,7.03,1.625,8.75,1.078,1.722,3,2.984,5.75,3.75-2.75,0.744-4.672,1.966-5.75,3.688s-1.625,4.638-1.625,8.75v8.906c0,3.741-0.547,6.23-1.625,7.406-1.078,1.178-3.09,1.75-6.062,1.75-0.174,0-0.441-0.006-0.813-0.031s-0.677-0.031-0.875-0.031v4.625h1.531c2.527,0,4.52-0.121,5.969-0.406s2.659-0.761,3.625-1.407c1.338-0.89,2.267-2.114,2.813-3.687,0.544-1.573,0.812-4.271,0.812-8.063v-9c0-3.764,0.719-6.401,2.094-7.937,1.374-1.536,3.718-2.311,7.062-2.313,0.174,0.002,0.472,0.038,0.844,0.063,0.371,0.025,0.645,0.031,0.844,0.031v-4.718c-0.199,0-0.473,0.006-0.844,0.031-0.372,0.025-0.67,0.031-0.844,0.031-3.344,0-5.688-0.778-7.062-2.312-1.375-1.536-2.094-4.173-2.094-7.938v-9.062c0-3.766-0.268-6.44-0.812-8-0.546-1.562-1.475-2.758-2.813-3.626-1.04-0.668-2.333-1.159-3.844-1.468-1.511-0.31-3.46-0.469-5.937-0.469h-1.344zm-30,8.125c-2.471,0-4.5,2.029-4.5,4.5s2.029,4.5,4.5,4.5,4.5-2.029,4.5-4.5-2.029-4.5-4.5-4.5zm0,9h-1.188v0.594h2.376v-0.594h-1.188zm21-9c-2.471,0-4.5,2.029-4.5,4.5,0,2.022,1.371,3.752,3.219,4.312-0.269,1.509-1.176,2.461-2.625,3.344-1.754,1.069-4.313,1.844-6.938,2.594s-5.316,1.481-7.5,2.812c-0.526,0.321-1.017,0.71-1.468,1.126v-0.094h-2.376v0.594h1.876c-0.175,0.192-0.377,0.415-0.532,0.624h-1.344v0.594h0.969c-0.115,0.193-0.216,0.389-0.312,0.594h-0.657v0.594h0.407c-0.07,0.195-0.135,0.388-0.188,0.594h-0.219v0.468c-1.893,0.531-3.312,2.289-3.312,4.344s1.419,3.813,3.312,4.344v0.468h2.376v-0.468c1.893-0.531,3.312-2.289,3.312-4.344,0-2.002-1.337-3.703-3.156-4.281,0.325-1.349,1.205-2.267,2.562-3.094,1.754-1.069,4.313-1.813,6.938-2.563s5.316-1.512,7.5-2.843c0.739-0.451,1.391-0.989,1.968-1.625h1.876v-0.594h-1.344c0.14-0.19,0.253-0.389,0.375-0.594h0.969v-0.594h-0.657c0.092-0.194,0.176-0.419,0.25-0.624h0.407v-0.594h-0.219c0.05-0.196,0.091-0.389,0.125-0.594h0.094v-0.156c1.893-0.531,3.312-2.289,3.312-4.344,0-2.471-2.029-4.5-4.5-4.5zm-21,2.406c1.174,0,2.094,0.92,2.094,2.094s-0.92,2.094-2.094,2.094-2.094-0.92-2.094-2.094,0.92-2.094,2.094-2.094zm21,0c1.174,0,2.094,0.92,2.094,2.094s-0.92,2.094-2.094,2.094-2.094-0.92-2.094-2.094,0.92-2.094,2.094-2.094zm-22.188,7.782v0.624h2.376v-0.624h-2.376zm0,1.218v0.594h2.376v-0.594h-2.376zm0,1.188v0.594h2.376v-0.594h-2.376zm21,0.594v0.624h2.376v-0.624h-2.376zm-21,0.624v0.594h2.376v-0.594h-2.376zm21,0.594v0.594h2.376v-0.594h-2.376zm-21,0.594v0.594h2.376v-0.594h-2.376zm21,0.594v0.594h2.376v-0.594h-2.376zm-21,0.594v0.624h2.376v-0.624h-2.376zm21,0.624v0.594h2.376v-0.594h-2.376zm-21,0.594v0.594h2.376v-0.594h-2.376zm21,0.594v0.594h2.376v-0.594h-2.376zm0,1.188v0.624h2.376v-0.624h-2.376zm0,1.218v0.594h2.376v-0.594h-2.376zm0,1.188v0.594h1.188,1.188v-0.594h-2.376zm1.188,0.594c-2.471,0-4.5,2.028-4.5,4.5,0,2.471,2.029,4.5,4.5,4.5,0.09,0,0.161,0.005,0.25,0l0.844,0.156,0.031-0.219v-0.063c1.931-0.505,3.375-2.293,3.375-4.374,0-2.472-2.029-4.5-4.5-4.5zm0,2.406c1.174,0,2.094,0.919,2.094,2.094,0,1.174-0.92,2.124-2.094,2.124s-2.094-0.95-2.094-2.124c0-1.175,0.92-2.094,2.094-2.094zm-21,0.312c1.174,0,2.094,0.92,2.094,2.094s-0.92,2.094-2.094,2.094-2.094-0.92-2.094-2.094,0.92-2.094,2.094-2.094zm19.625,6.469v0.063l-0.031,0.031-0.063,0.219-0.031,0.062-0.031,0.062,2.219,0.938,0.062-0.156,0.031-0.032v-0.062l0.125-0.375v-0.031l0.032-0.063v-0.031l-1.563-0.375-0.75-0.25zm-0.375,0.844l-0.156,0.343-0.032,0.032v0.031l0.094,0.063,1.813,1.374,0.093-0.124,0.063-0.063,0.031-0.094,0.188-0.375-2.094-1.187zm-20.438,0.187v0.594h2.376v-0.594h-2.376zm19.969,0.594l-0.093,0.094-0.032,0.031-0.281,0.281,1.719,1.688,0.375-0.438,0.062-0.031,0.063-0.063v-0.031l-1.125-0.843-0.688-0.688zm-19.969,0.594v0.594h2.376v-0.594h-2.376zm19.219,0.125l-0.375,0.281,1.313,2,0.125-0.062,0.062-0.063,0.032-0.031,0.343-0.282-1.5-1.843zm-0.906,0.625l-0.094,0.062-0.312,0.188,1.156,2.094,0.437-0.25h0.032l0.062-0.032,0.063-0.062-1.344-2zm-18.313,0.468v0.594h2.376v-0.594h-2.376zm17.438,0.032l-0.562,0.25,1.031,2.156,0.562-0.25-1.031-2.156zm-1.031,0.468l-0.375,0.157h-0.063l-0.093,0.031,0.843,2.25,0.157-0.031,0.031-0.031,0.406-0.157-0.906-2.219zm-1.094,0.407l-0.125,0.062h-0.062l-0.313,0.125,0.719,2.282,0.375-0.126,0.031-0.031h0.031l0.188-0.062-0.844-2.25zm-15.313,0.281v0.594h2.376v-0.594h-2.376zm14.219,0.062l-0.562,0.188,0.719,2.312,0.562-0.187-0.719-2.313zm-1.093,0.376l-0.594,0.156,0.687,2.312,0.563-0.156-0.656-2.312zm-1.188,0.343l-0.562,0.157,0.656,2.312,0.594-0.188-0.688-2.281zm-1.125,0.313l-0.594,0.187,0.688,2.313,0.562-0.188-0.656-2.312zm-10.813,0.094v0.624h2.376v-0.624h-2.376zm9.657,0.25l-0.25,0.093h-0.031l-0.344,0.094,0.75,2.281,0.281-0.094h0.031l0.219-0.062-0.656-2.312zm-1.188,0.374l-0.562,0.188,0.75,2.281,0.562-0.187-0.75-2.282zm-1.187,0.376l-0.563,0.218,0.844,2.25,0.563-0.187-0.844-2.281zm-7.282,0.218v0.594h2.376v-0.594h-2.376zm6.126,0.25l-0.532,0.219h-0.031-0.031v0.031l0.75,1.625,0.218,0.563,0.063-0.032,0.469-0.187-0.906-2.219zm-1.157,0.5l-0.25,0.125-0.031,0.031h-0.031l-0.281,0.188,1.156,2.062,0.218-0.093,0.063-0.063,0.187-0.094-1.031-2.156zm-4.969,0.438v0.594h2.376v-0.594h-2.376zm3.782,0.218l-0.5,0.344,1.312,2,0.5-0.344-1.312-2zm-1.063,0.782l-0.343,0.25v-0.032h-2.376v0.594h2.376v-0.094l1.5,1.438v-0.031l0.093-0.094,0.25-0.187-1.5-1.844zm-1,0.906v0.031l-0.062,0.063-0.063,0.062-0.25,0.344h-1.344v0.594h1.938l1.25,0.937,0.344-0.437-0.782-0.594-0.374-0.344v-0.156h-0.126l-0.531-0.5zm-0.875,1.25l-0.187,0.344-0.031,0.062-0.032,0.032h-0.594v0.624h1.5l1.25,0.5v-0.031l0.063-0.093v-0.032l0.125-0.25-0.562-0.312v-0.406h-0.719l-0.813-0.438zm-0.844,1.656v0.782c-1.898,0.527-3.312,2.254-3.312,4.312,0,2.471,2.029,4.5,4.5,4.5s4.5-2.029,4.5-4.5c0-2.02-1.373-3.719-3.219-4.281-0.051,0-0.062-0.031-0.093-0.031v-0.782h-1.032-1.156-0.188zm1.188,3c1.174,0,2.094,0.92,2.094,2.094s-0.92,2.094-2.094,2.094-2.094-0.92-2.094-2.094,0.92-2.094,2.094-2.094z"/></svg></g></svg>